
<svg width="400" height="400" viewBox="0 0 400 400" xmlns="http://www.w3.org/2000/svg">
  <defs>
    <radialGradient id="gaugeGrad" cx="50%" cy="50%" r="50%">
      <stop offset="0%" style="stop-color:#ffffff"/>
      <stop offset="100%" style="stop-color:#e0e0e0"/>
    </radialGradient>
  </defs>
  <rect width="400" height="400" fill="#f8f9fa"/>
  
  <!-- Main gauge body -->
  <circle cx="200" cy="200" r="90" fill="url(#gaugeGrad)" stroke="#333" stroke-width="4"/>
  <circle cx="200" cy="200" r="80" fill="none" stroke="#666" stroke-width="2"/>
  
  <!-- H Guru branding -->
  <text x="200" y="140" text-anchor="middle" font-family="Arial" font-size="16" font-weight="bold" fill="#e74c3c">H GURU</text>
  
  <!-- Scale markings -->
  <g stroke="#333" stroke-width="2" fill="none">
    <line x1="200" y1="130" x2="200" y2="140" />
    <line x1="270" y1="200" x2="260" y2="200" />
    <line x1="200" y1="270" x2="200" y2="260" />
    <line x1="130" y1="200" x2="140" y2="200" />
    <line x1="249" y1="151" x2="244" y2="156" />
    <line x1="249" y1="249" x2="244" y2="244" />
    <line x1="151" y1="249" x2="156" y2="244" />
    <line x1="151" y1="151" x2="156" y2="156" />
  </g>
  
  <!-- Numbers -->
  <text x="200" y="150" text-anchor="middle" font-family="Arial" font-size="12" fill="#333">0</text>
  <text x="250" y="210" text-anchor="middle" font-family="Arial" font-size="12" fill="#333">50</text>
  <text x="200" y="265" text-anchor="middle" font-family="Arial" font-size="12" fill="#333">100</text>
  
  <!-- Needle -->
  <line x1="200" y1="200" x2="230" y2="170" stroke="#e74c3c" stroke-width="3" stroke-linecap="round"/>
  <circle cx="200" cy="200" r="8" fill="#333"/>
  
  <!-- Connection port -->
  <rect x="180" y="290" width="40" height="20" fill="#666" rx="3"/>
  
  <text x="200" y="340" text-anchor="middle" font-family="Arial" font-size="14" font-weight="bold" fill="#333">2 inch H Guru</text>
  <text x="200" y="360" text-anchor="middle" font-family="Arial" font-size="12" fill="#666">Air Pressure Gauge</text>
</svg>