
<svg width="400" height="400" viewBox="0 0 400 400" xmlns="http://www.w3.org/2000/svg">
  <defs>
    <linearGradient id="hydraulicGrad" x1="0%" y1="0%" x2="100%" y2="100%">
      <stop offset="0%" style="stop-color:#c0c0c0"/>
      <stop offset="100%" style="stop-color:#808080"/>
    </linearGradient>
  </defs>
  <rect width="400" height="400" fill="#f8f9fa"/>
  
  <!-- Main valve body -->
  <rect x="100" y="170" width="200" height="60" fill="url(#hydraulicGrad)" stroke="#666" stroke-width="2" rx="30"/>
  
  <!-- Techno SW12 marking -->
  <rect x="110" y="180" width="80" height="20" fill="#2c5aa0" rx="3"/>
  <text x="150" y="194" text-anchor="middle" font-family="Arial" font-size="10" font-weight="bold" fill="white">TECHNO SW12</text>
  
  <!-- Ball valve indicator -->
  <circle cx="200" cy="200" r="25" fill="#4a90e2" stroke="#2c5aa0" stroke-width="3"/>
  <circle cx="200" cy="200" r="15" fill="#6bb6ff" stroke="#4a90e2" stroke-width="2"/>
  <text x="200" y="205" text-anchor="middle" font-family="Arial" font-size="10" font-weight="bold" fill="white">O</text>
  
  <!-- Handle -->
  <rect x="190" y="150" width="20" height="20" fill="#e74c3c" rx="3"/>
  <rect x="195" y="140" width="10" height="15" fill="#c0392b" rx="2"/>
  
  <!-- 3/4 inch BSP ports -->
  <rect x="50" y="185" width="50" height="30" fill="url(#hydraulicGrad)" stroke="#666"/>
  <rect x="300" y="185" width="50" height="30" fill="url(#hydraulicGrad)" stroke="#666"/>
  
  <!-- BSP threading indication -->
  <g stroke="#999" stroke-width="1" fill="none">
    <line x1="55" y1="190" x2="95" y2="190" />
    <line x1="55" y1="195" x2="95" y2="195" />
    <line x1="55" y1="205" x2="95" y2="205" />
    <line x1="55" y1="210" x2="95" y2="210" />
    <line x1="305" y1="190" x2="345" y2="190" />
    <line x1="305" y1="195" x2="345" y2="195" />
    <line x1="305" y1="205" x2="345" y2="205" />
    <line x1="305" y1="210" x2="345" y2="210" />
  </g>
  
  <text x="200" y="280" text-anchor="middle" font-family="Arial" font-size="14" font-weight="bold" fill="#333">3/4" BSP Techno SW12</text>
  <text x="200" y="300" text-anchor="middle" font-family="Arial" font-size="12" fill="#666">Hydraulic Ball Valve</text>
</svg>